<svg width="180" height="180" xmlns="http://www.w3.org/2000/svg">

 <g>
  <title>Layer 1</title>
  <path stroke-width="14" d="m43.75,15c-1,1 -1.88152,1.19028 -5,3c-1.934,1.12234 -2.7025,2.5635 -8,5c-2.87297,1.32138 -5.18601,2.69255 -7,4c-3.44181,2.48071 -5.19028,4.88152 -7,8c-1.12234,1.934 -3.28281,3.78113 -4,5c-3.69195,6.27451 -2,8 -2,10c0,3 1,5 2,6c1,1 2,2 2,2c1,0 1.61384,0.297 4,3c1.47984,1.67633 2.71412,3.21168 5,6c0.8966,1.09367 1.54916,2.95517 5,4c0.95709,0.28979 4,1 6,1c3,0 5.94366,-0.18835 9,-1c4.9282,-1.30875 5.87856,-1.49346 9,-2c1.97417,-0.32037 4,-1 6,-1l0,0l1,0l0,0" id="svg_3" stroke="#000" fill="none"/>
  <path stroke-width="14" d="m74.75,75c0,-3 -0.49622,-6.90779 -1,-11c-0.36655,-2.97752 -1,-15 -1,-19c0,-1 -0.96109,-2.07748 0,-8c0.50654,-3.12144 1,-8 1,-11c0,-4 -0.39415,-9.01947 0,-13c0.50245,-5.0742 1,-7 1,-8c0,0 0,0 0,0c0,0 0,0 0,1c0,3 0.49755,3.9258 1,9c0.59122,5.9708 1.49874,8.94672 2,16c0.28355,3.98994 0,9 0,11c0,1 0,3 0,4c0,2 0,4 0,4c0,1 0,1 0,1c0,1 -1,1 -1,1c0,0 0,0 0,0c-1,0 -2,-1 -3,-1c0,0 -0.70711,-0.29289 0,-1c1.41422,-1.41422 4.00387,-0.12428 6,0c8.04668,0.50097 11,1 14,1c2,0 2.69344,-0.45881 4,-1c0.92388,-0.38268 3.31021,-1.71899 6,-5c2.28588,-2.78833 3.48626,-5.82375 4,-8c0.68926,-2.91975 -0.34518,-6.17697 -2,-11c-0.72569,-2.11504 -2,-4 -2,-5c0,-1 -0.4588,-1.30656 -1,0c-0.38268,0.92388 -1.33327,1.86564 -2,4c-2.10836,6.74943 -0.50171,10.93796 0,17c0.4124,4.98296 -0.36655,11.02248 0,14c0.50378,4.09221 1,9 1,12c0,2 0,3 0,4c0,0 0,0 0,0c0,0 0,1 0,1c0,0 0,1 0,3l0,1l0,0" id="svg_4" stroke="#000" fill="none"/>
  <path d="m124.75,71c1,0 2,1 3,1c1,0 2,0 8,0c1,0 4,0 7,0c2,0 4,0 5,0c2,0 4,0 6,0c3,0 4,0 5,0c1,0 2,0 2,0c0,0 1,0 1,0c1,0 1,0 1,0c1,0 1,-1 2,-1c2,0 4,0 4,0c0,0 0,0 -1,0c-1,0 -3.16051,0.37852 -9,-1c-2.17625,-0.51374 -5,-2 -7,-2c-2,0 -3,0 -4,0c-1,0 -1,0 -2,0c0,0 0,0 0,0c0,-2 0,-2 0,-2c0,-2 0,-4 0,-6c0,-4 0,-6 0,-7c0,-2 0,-4 0,-5c0,-2 0,-4 0,-6c0,-4 0,-5 0,-6c0,-1 -0.49345,-1.87856 -1,-5c-0.32036,-1.97417 0,-4 0,-6c0,0 0,-3 0,-5c0,-3 0,-4 0,-5c0,-1 0,-1 0,-2c0,0 0,0 -1,0c-1,0 -4,0 -5,0c-1,0 -4,0 -5,0c-1,0 -1,0 -2,0c-1,0 -3.02675,0.22975 -4,0c-2.17625,-0.51374 -2,-1 -3,-1c0,0 0,0 0,1c0,0 3.04132,2.84723 7,4c3.03616,0.88413 7.82375,2.48626 10,3c2.91975,0.68926 5,1 8,1c1,0 3,1 5,1c1,0 3,0 4,0c1,0 1,0 1,0c1,0 1,0 3,0c0,0 1,0 1,0c0,0 1,0 2,0c3,0 3,0 4,0c0,0 0,-1 0,-1c0,-1 -0.47427,-1.14935 -1,-2c-1.17557,-1.90211 -3.07843,-1.78985 -6,-3c-2.06586,-0.85571 -3.82375,-2.48626 -6,-3c-0.97325,-0.22975 -3.29289,-0.29289 -4,-1c-0.70711,-0.70711 -1,-1 -3,-1c0,0 -1,0 -1,0l-1,0" id="svg_6" stroke-width="14" stroke="#000" fill="none"/>
  <path d="m12.75,115c0,-1 0,-3 0,-4c0,-1 0,-4 0,-5c0,0 0,-1 0,-1c0,0 0,-1 0,-1c0,-1 0,-1 0,-1c0,-1 -0.18911,-1.01804 0,-2c1.01838,-5.28799 2,-7 2,-8c0,-1 0,-1 0,-1c0,0 1,0 1,-1c0,0 1,-1 3,-4c0,0 1,0 1,0c0,0 0,0 0,0c1,1 1,1 2,2c1,1 2.61384,1.297 5,4c1.47984,1.67633 3.41886,3.41886 5,5c1.58114,1.58114 3.18601,2.69255 5,4c2.29454,1.65381 4,3 6,5c1,1 3,1 3,2c0,0 0,0 0,0c1,0 1,0 1,0c1,-1 2,-2 3,-3c1,-1 2,-2 3,-3c2,-2 4,-4 5,-5c2,-2 3,-3 4,-3c0,0 0,0 0,0c1,0 1.82443,-0.90211 3,1c0.52573,0.85065 0.61065,3.15928 2,6c1.58411,3.23892 5,15 5,15c0,2 1,2 1,3c0,1 0,1 0,2l0,0" id="svg_7" stroke-width="14" stroke="#000" fill="none"/>
  <path d="m102.75,117c0,-1 -1,-5 -1,-6c0,-1 0,-3 0,-5c0,-2 0,-3 0,-5c0,0 0,-1 0,-1c0,-1 0,-2 0,-2c0,-1 1.1731,-3.85273 2,-5c1.30745,-1.814 1,-2 1,-2c0,-1 1.29289,-1.29289 2,-2c0.70711,-0.70711 4,-2 5,-2c2,0 3.07612,0.38268 4,0c1.30656,-0.5412 1.82375,-0.51374 4,0c0.97325,0.22975 3.02675,1.77025 4,2c2.17625,0.51374 2.69344,2.4588 4,3c0.92387,0.38268 2,1 3,2c1,1 1.85274,2.1731 3,3c1.814,1.30745 2.4588,1.69344 3,3c0.38269,0.92388 0,1 0,2c0,0 0.76537,0.15224 0,2c-0.5412,1.30656 -3.0535,1.4595 -5,1c-4.3525,-1.02749 -7.31001,-3.33749 -10,-5c-1.203,-0.7435 -3,-1 -4,-1c-1,0 -2,0 -3,0c0,0 -1,0 -2,0c-2,0 -3,0 -4,0c-1,0 -1,1 -2,1l-3,1l0,0l-2,0" id="svg_9" stroke-width="14" stroke="#000" fill="none"/>
  <path d="m17.75,132c0,0 1,1 1,2c0,1 0,2 0,4c0,1 0,3 0,3c0,1 0,3 0,6c0,1 0,1 0,2c0,0 0,1 0,1c0,3 0,4 0,4c0,1 0,2 0,4c0,1 0,2 0,2c0,2 0,3 0,4l0,1l0,0" id="svg_10" stroke-width="14" stroke="#000" fill="none"/>
  <path d="m63.75,134c0,0 -1,-1 -2,-1c0,0 -2,-1 -5,-1c-1,0 -4.01291,-0.16019 -5,0c-3.12144,0.50655 -4.15224,1.23463 -6,2c-1.30656,0.5412 -1.82375,1.48625 -4,2c-0.97325,0.22975 -3,2 -4,3c-1,1 -2,2 -2,3c0,1 -1.28978,2.04291 -1,3c1.04483,3.45085 3,4 5,6c1,1 3.07612,1.61731 4,2c1.30656,0.5412 3,2 4,2c4,0 5,0 8,0c2,0 4,0 7,0c1,0 4,0 5,1c1,1 1.69344,1.4588 3,2c0.92388,0.38269 1,1 1,2c0,1 0.38268,3.07613 0,4c-0.5412,1.30656 -1.93414,3.14429 -4,4c-2.92156,1.21014 -5,2 -5,2c-3,0 -5,0 -7,0c-2,0 -3,0 -5,0c0,0 -2,1 -3,1c-2,0 -3,0 -4,0l0,0" id="svg_11" stroke-width="14" stroke="#000" fill="none"/>
  <path d="m96.75,125c0,1 0.4588,1.69344 1,3c0.76537,1.84776 0.67963,6.02582 1,8c0.50654,3.12144 1.51945,5.03874 2,8c0.50654,3.12144 1.4588,4.69344 2,6c0.38268,0.92387 0,3 0,4c0,0 0,1 0,2c0,0 1,1 1,3c0,1 0,1 0,2c0,0 -0.38268,1.07613 0,2c0.5412,1.30656 1,4 1,4c0,1 0,1 0,2l0,0" id="svg_12" stroke-width="14" stroke="#000" fill="none"/>
  <path d="m105.75,149c1,0 3,-1 4,-1c2,0 3,0 5,0c0,0 1,0 3,0c1,0 2,0 4,0c1,0 2,0 2,0c1,0 0.29289,-0.29289 1,-1c0.70711,-0.70711 1,0 2,0c0,0 0.69344,-0.4588 2,-1c0.92387,-0.38269 1,0 2,0c0,0 0.29289,0.70711 1,0c0.70711,-0.70711 -0.16019,-1.01291 0,-2c0.50655,-3.12144 0.76537,-5.15224 0,-7c-0.5412,-1.30656 -1,-2 -1,-3c0,0 -1,-2 -1,-3c0,0 0,-1 0,-1c0,-1 0,-1 0,-1c0,2 -0.22975,4.02675 0,5c1.02748,4.35251 2.5695,6.133 4,10c0.7758,2.09717 1.23463,4.15224 2,6c0.5412,1.30656 1,2 1,2c0,1 0.48625,1.82375 1,4c0.22975,0.97325 0,1 0,2c0,1 0,2 0,4c0,1 0,2 0,2c0,1 0,2 0,2c0,0 0,0 0,0c0,0 0,0 0,0l0,0l0,0l0,0" id="svg_13" stroke-width="14" stroke="#000" fill="none"/>
 </g>
</svg>